<?xml version="1.0" encoding="UTF-8"?><svg id="Layer_2" xmlns="http://www.w3.org/2000/svg" xmlns:xlink="http://www.w3.org/1999/xlink" viewBox="0 0 140.48 40.63"><defs><style>.cls-1{fill:url(#linear-gradient);}.cls-1,.cls-2,.cls-3,.cls-4,.cls-5,.cls-6{stroke-width:0px;}.cls-2{fill:url(#linear-gradient-4);}.cls-3{fill:url(#linear-gradient-2);}.cls-4{fill:url(#linear-gradient-3);}.cls-5{fill:#6ec8ff;}.cls-6{fill:#fff;}</style><linearGradient id="linear-gradient" x1="60.23" y1="17" x2="134.72" y2="47.81" gradientUnits="userSpaceOnUse"><stop offset="0" stop-color="#6ec8ff"/><stop offset="1" stop-color="#6400a0"/></linearGradient><linearGradient id="linear-gradient-2" x1="68.07" y1="-1.96" x2="142.56" y2="28.85" xlink:href="#linear-gradient"/><linearGradient id="linear-gradient-3" x1="72.93" y1="-13.7" x2="147.42" y2="17.12" xlink:href="#linear-gradient"/><linearGradient id="linear-gradient-4" x1="64.85" y1="5.84" x2="139.33" y2="36.66" xlink:href="#linear-gradient"/></defs><g id="Layer_1-2"><path class="cls-5" d="m0,27.45v-7.67h2.32c2.11,0,2.75,1.25,2.75,2.31s-.66,2.27-2.76,2.27H.77v3.09h-.77Zm2.48-3.78c1.07,0,1.82-.64,1.82-1.6,0-.77-.49-1.6-1.99-1.6H.77v3.19h1.71Z"/><path class="cls-5" d="m6.03,27.45v-7.67h.72v7.67h-.72Z"/><path class="cls-5" d="m12.35,27.45v-.88h-.02c-.32.65-.98,1.02-1.8,1.02-1.21,0-2.46-.64-2.46-2.56v-3.24h.72v3.16c0,1.28.55,1.99,1.73,1.99.97,0,1.78-.68,1.78-2.04v-3.11h.73v5.67h-.68Z"/><path class="cls-5" d="m19.28,26.41h-.02c-.4.75-1.27,1.17-2.19,1.17-1.62,0-2.96-1.29-2.96-2.94s1.34-3,2.96-3c.91,0,1.72.42,2.19,1.16h.02v-1.01h.72v5.07c0,2.05-1.49,2.83-2.77,2.83-1.4,0-2.52-.77-2.9-2.08h.77c.37.92,1.14,1.43,2.12,1.43,1.29,0,2.05-.87,2.05-2.07v-.54Zm.04-1.79c0-1.23-.97-2.33-2.26-2.33s-2.23,1.07-2.23,2.33.97,2.31,2.24,2.31,2.25-1.09,2.25-2.31Z"/><path class="cls-5" d="m26.94,27.45v-.71h-.01c-.33.5-.92.8-1.57.8-1.21,0-2.17-.91-2.17-2.13s.99-2.11,2.17-2.11c.67,0,1.25.3,1.57.81h.01v-.71h.52v4.04h-.52Zm.03-2.02c0-.9-.71-1.66-1.62-1.66s-1.65.71-1.65,1.67.7,1.64,1.65,1.64c.9,0,1.62-.74,1.62-1.65Z"/><path class="cls-5" d="m31.43,27.45v-2.25c0-.91-.55-1.42-1.26-1.42-.78,0-1.26.6-1.26,1.39v2.29h-.52v-4.04h.52v.52h.01c.26-.39.72-.62,1.24-.62,1.12,0,1.78.77,1.78,1.89v2.25h-.52Z"/><path class="cls-5" d="m36.46,27.45v-.71h-.01c-.35.53-.95.8-1.57.8-1.21,0-2.17-.91-2.17-2.13s.99-2.11,2.17-2.11c.63,0,1.23.3,1.57.8h.01v-2.12h.52v5.46h-.52Zm.03-2.02c0-.9-.7-1.66-1.62-1.66s-1.65.72-1.65,1.67.69,1.64,1.65,1.64c.89,0,1.62-.73,1.62-1.65Z"/><path class="cls-5" d="m40.21,27.45v-7.67h2.32c2.11,0,2.75,1.25,2.75,2.31s-.66,2.27-2.76,2.27h-1.54v3.09h-.77Zm2.48-3.78c1.07,0,1.82-.64,1.82-1.6,0-.77-.49-1.6-1.99-1.6h-1.54v3.19h1.71Z"/><path class="cls-5" d="m46.24,27.45v-7.67h.72v7.67h-.72Z"/><path class="cls-5" d="m53.35,27.45v-.99h-.02c-.47.71-1.29,1.13-2.21,1.13-1.7,0-3.05-1.29-3.05-2.98s1.39-2.96,3.05-2.96c.94,0,1.75.42,2.21,1.14h.02v-.99h.72v5.67h-.72Zm.04-2.83c0-1.26-.99-2.33-2.28-2.33s-2.31.99-2.31,2.34.98,2.3,2.32,2.3c1.26,0,2.27-1.04,2.27-2.31Z"/><path class="cls-5" d="m56.1,29.44l.98-2.18-2.21-5.48h.77l1.8,4.52,1.93-4.52h.77l-3.28,7.66h-.76Z"/><path class="cls-1" d="m86.58,40.63l-6.26-9.69-6.37,9.69h-11.27l11.89-16.74-10.54-14.54h11.21l5.07,8.23,5.02-8.23h11.1l-10.54,14.54,12.12,16.74h-11.44Z"/><path class="cls-3" d="m131.6,40.63V12.48c0-.66.53-1.19,1.19-1.19h6.5c.66,0,1.19.53,1.19,1.19v28.15h-8.88Z"/><path class="cls-4" d="m139.29,0h-11.93c-.66,0-1.19.53-1.19,1.19v5.85c0,1.27-1.03,2.31-2.31,2.31h-5.84c-.67,0-1.21.54-1.21,1.21v6.94c0,.67.54,1.21,1.21,1.21h6.94c.67,0,1.21-.54,1.21-1.21v-5.84c0-1.27,1.03-2.31,2.31-2.31h10.82c.66,0,1.19-.53,1.19-1.19V1.19c0-.66-.53-1.19-1.19-1.19Z"/><circle class="cls-6" cx="135.78" cy="4.68" r=".74"/><circle class="cls-6" cx="133.32" cy="4.68" r=".74"/><circle class="cls-6" cx="130.86" cy="4.68" r=".74"/><path class="cls-2" d="m116.86,31.32h-5.18c-3.31,0-6.26-2.41-6.58-5.7-.37-3.77,2.6-6.97,6.3-6.97h2.34c.67,0,1.21-.54,1.21-1.21v-6.89c0-.67-.54-1.21-1.21-1.21h-2.34c-8.64,0-15.64,7-15.64,15.64h0c0,8.64,7,15.64,15.64,15.64h14.77s0-18.78,0-18.78c0-.67-.54-1.21-1.21-1.21h-6.89c-.67,0-1.21.54-1.21,1.21v9.47Z"/></g></svg>