<?xml version="1.0" encoding="UTF-8"?><svg id="Layer_2" xmlns="http://www.w3.org/2000/svg" xmlns:xlink="http://www.w3.org/1999/xlink" viewBox="0 0 77.8 53.66"><defs><style>.cls-1{fill:url(#linear-gradient);}.cls-1,.cls-2,.cls-3,.cls-4,.cls-5,.cls-6{stroke-width:0px;}.cls-2{fill:url(#linear-gradient-4);}.cls-3{fill:url(#linear-gradient-2);}.cls-4{fill:url(#linear-gradient-3);}.cls-5{fill:#6ec8ff;}.cls-6{fill:#fff;}</style><linearGradient id="linear-gradient" x1="-1.9" y1="17.33" x2="72.59" y2="47.71" gradientUnits="userSpaceOnUse"><stop offset="0" stop-color="#6ec8ff"/><stop offset="1" stop-color="#6400a0"/></linearGradient><linearGradient id="linear-gradient-2" x1="5.73" y1="-1.42" x2="80.22" y2="28.95" xlink:href="#linear-gradient"/><linearGradient id="linear-gradient-3" x1="10.55" y1="-13.24" x2="85.04" y2="17.13" xlink:href="#linear-gradient"/><linearGradient id="linear-gradient-4" x1="2.59" y1="6.28" x2="77.08" y2="36.66" xlink:href="#linear-gradient"/></defs><g id="Layer_1-2"><path class="cls-5" d="m30.87,51.92v-5.97h1.81c1.65,0,2.14.98,2.14,1.8s-.52,1.77-2.15,1.77h-1.2v2.41h-.6Zm1.93-2.95c.83,0,1.42-.5,1.42-1.24,0-.6-.38-1.24-1.55-1.24h-1.2v2.49h1.33Z"/><path class="cls-5" d="m35.57,51.92v-5.97h.57v5.97h-.57Z"/><path class="cls-5" d="m40.49,51.92v-.69h-.02c-.25.51-.77.79-1.41.79-.94,0-1.91-.5-1.91-1.99v-2.53h.57v2.46c0,1,.43,1.55,1.35,1.55.76,0,1.39-.53,1.39-1.59v-2.42h.57v4.42h-.53Z"/><path class="cls-5" d="m45.89,51.11h-.02c-.32.58-.99.91-1.7.91-1.26,0-2.31-1-2.31-2.29s1.04-2.34,2.31-2.34c.71,0,1.34.33,1.7.9h.02v-.79h.57v3.95c0,1.6-1.16,2.2-2.16,2.2-1.09,0-1.96-.6-2.26-1.62h.6c.29.72.89,1.11,1.66,1.11,1,0,1.6-.68,1.6-1.61v-.42Zm.03-1.4c0-.96-.76-1.82-1.76-1.82s-1.74.83-1.74,1.82.76,1.8,1.74,1.8,1.75-.85,1.75-1.8Z"/><path class="cls-5" d="m51.85,51.92v-.55h-.01c-.26.39-.71.63-1.23.63-.94,0-1.69-.71-1.69-1.66s.77-1.65,1.69-1.65c.52,0,.97.24,1.23.63h.01v-.55h.4v3.15h-.4Zm.02-1.57c0-.7-.55-1.29-1.27-1.29s-1.28.55-1.28,1.3.55,1.28,1.29,1.28c.7,0,1.26-.58,1.26-1.28Z"/><path class="cls-5" d="m55.34,51.92v-1.75c0-.71-.43-1.11-.98-1.11-.61,0-.98.47-.98,1.08v1.78h-.4v-3.15h.4v.4h.01c.2-.3.56-.48.97-.48.87,0,1.39.6,1.39,1.47v1.75h-.4Z"/><path class="cls-5" d="m59.26,51.92v-.55h-.01c-.28.41-.74.63-1.22.63-.94,0-1.69-.71-1.69-1.66s.77-1.65,1.69-1.65c.49,0,.95.23,1.22.62h.01v-1.65h.4v4.26h-.4Zm.02-1.57c0-.7-.55-1.29-1.27-1.29s-1.28.56-1.28,1.3.54,1.28,1.29,1.28c.7,0,1.26-.57,1.26-1.28Z"/><path class="cls-5" d="m62.18,51.92v-5.97h1.81c1.65,0,2.14.98,2.14,1.8s-.52,1.77-2.15,1.77h-1.2v2.41h-.6Zm1.93-2.95c.83,0,1.42-.5,1.42-1.24,0-.6-.38-1.24-1.55-1.24h-1.2v2.49h1.33Z"/><path class="cls-5" d="m66.87,51.92v-5.97h.57v5.97h-.57Z"/><path class="cls-5" d="m72.41,51.92v-.78h-.02c-.36.55-1,.88-1.72.88-1.32,0-2.37-1-2.37-2.32s1.08-2.31,2.37-2.31c.73,0,1.36.33,1.72.89h.02v-.77h.57v4.42h-.57Zm.03-2.2c0-.98-.77-1.82-1.78-1.82s-1.8.77-1.8,1.82.77,1.79,1.81,1.79c.99,0,1.77-.81,1.77-1.8Z"/><path class="cls-5" d="m74.55,53.47l.77-1.7-1.72-4.27h.6l1.4,3.52,1.5-3.52h.6l-2.56,5.96h-.59Z"/><path class="cls-1" d="m23.89,40.63l-6.26-9.69-6.37,9.69H0l11.89-16.74L1.35,9.35h11.21l5.07,8.23,5.02-8.23h11.1l-10.54,14.54,12.12,16.74h-11.44Z"/><path class="cls-3" d="m68.92,40.63V12.48c0-.66.53-1.19,1.19-1.19h6.5c.66,0,1.19.53,1.19,1.19v28.15h-8.88Z"/><path class="cls-4" d="m76.61,0h-11.93c-.66,0-1.19.53-1.19,1.19v5.85c0,1.27-1.03,2.31-2.31,2.31h-5.84c-.67,0-1.21.54-1.21,1.21v6.94c0,.67.54,1.21,1.21,1.21h6.94c.67,0,1.21-.54,1.21-1.21v-5.84c0-1.27,1.03-2.31,2.31-2.31h10.82c.66,0,1.19-.53,1.19-1.19V1.19c0-.66-.53-1.19-1.19-1.19Z"/><circle class="cls-6" cx="73.1" cy="4.68" r=".74"/><circle class="cls-6" cx="70.64" cy="4.68" r=".74"/><circle class="cls-6" cx="68.18" cy="4.68" r=".74"/><path class="cls-2" d="m54.18,31.32h-5.18c-3.31,0-6.26-2.41-6.58-5.7-.37-3.77,2.6-6.97,6.3-6.97h2.34c.67,0,1.21-.54,1.21-1.21v-6.89c0-.67-.54-1.21-1.21-1.21h-2.34c-8.64,0-15.64,7-15.64,15.64h0c0,8.64,7,15.64,15.64,15.64h14.77s0-18.78,0-18.78c0-.67-.54-1.21-1.21-1.21h-6.89c-.67,0-1.21.54-1.21,1.21v9.47Z"/></g></svg>