<?xml version="1.0" encoding="UTF-8"?><svg id="Layer_2" xmlns="http://www.w3.org/2000/svg" xmlns:xlink="http://www.w3.org/1999/xlink" viewBox="0 0 77.8 40.63"><defs><style>.cls-1{fill:url(#linear-gradient);}.cls-1,.cls-2,.cls-3,.cls-4,.cls-5,.cls-6{stroke-width:0px;}.cls-2{fill:url(#linear-gradient-4);}.cls-3{fill:url(#linear-gradient-2);}.cls-4{fill:url(#linear-gradient-3);}.cls-5{fill:#6ec8ff;}.cls-6{fill:#fff;}</style><linearGradient id="linear-gradient" x1="-1.9" y1="17.33" x2="72.59" y2="47.71" gradientUnits="userSpaceOnUse"><stop offset="0" stop-color="#6ec8ff"/><stop offset="1" stop-color="#6400a0"/></linearGradient><linearGradient id="linear-gradient-2" x1="5.73" y1="-1.42" x2="80.22" y2="28.95" xlink:href="#linear-gradient"/><linearGradient id="linear-gradient-3" x1="10.55" y1="-13.24" x2="85.04" y2="17.13" xlink:href="#linear-gradient"/><linearGradient id="linear-gradient-4" x1="2.59" y1="6.28" x2="77.08" y2="36.66" xlink:href="#linear-gradient"/></defs><g id="Layer_1-2"><path class="cls-5" d="m1.12,5.27V1.07h1.27c1.16,0,1.5.69,1.5,1.27s-.36,1.24-1.51,1.24h-.85v1.69h-.42Zm1.36-2.07c.58,0,1-.35,1-.87,0-.42-.27-.87-1.09-.87h-.85v1.75h.94Z"/><path class="cls-5" d="m4.42,5.27V1.07h.4v4.2h-.4Z"/><path class="cls-5" d="m7.88,5.27v-.48h-.01c-.18.36-.54.56-.99.56-.66,0-1.35-.35-1.35-1.4v-1.78h.4v1.73c0,.7.3,1.09.95,1.09.53,0,.98-.37.98-1.12v-1.7h.4v3.1h-.38Z"/><path class="cls-5" d="m11.68,4.7h-.01c-.22.41-.7.64-1.2.64-.88,0-1.62-.7-1.62-1.61s.73-1.65,1.62-1.65c.5,0,.94.23,1.2.64h.01v-.56h.4v2.78c0,1.12-.82,1.55-1.52,1.55-.77,0-1.38-.42-1.59-1.14h.42c.2.5.62.78,1.16.78.7,0,1.12-.48,1.12-1.14v-.29Zm.02-.98c0-.68-.53-1.28-1.24-1.28s-1.22.58-1.22,1.28.53,1.27,1.23,1.27,1.23-.6,1.23-1.27Z"/><path class="cls-5" d="m15.86,5.27v-.39h0c-.18.27-.5.44-.86.44-.66,0-1.19-.5-1.19-1.16s.54-1.16,1.19-1.16c.37,0,.68.17.86.44h0v-.39h.28v2.21h-.28Zm.02-1.1c0-.49-.39-.91-.89-.91s-.9.39-.9.91.38.9.91.9c.49,0,.89-.4.89-.9Z"/><path class="cls-5" d="m18.32,5.27v-1.23c0-.5-.3-.78-.69-.78-.43,0-.69.33-.69.76v1.25h-.28v-2.21h.28v.28h0c.14-.21.39-.34.68-.34.61,0,.97.42.97,1.04v1.23h-.28Z"/><path class="cls-5" d="m21.08,5.27v-.39h0c-.19.29-.52.44-.86.44-.66,0-1.19-.5-1.19-1.16s.54-1.16,1.19-1.16c.34,0,.67.16.86.44h0v-1.16h.28v2.99h-.28Zm.02-1.1c0-.49-.38-.91-.89-.91s-.9.39-.9.91.38.9.91.9c.49,0,.89-.4.89-.9Z"/><path class="cls-5" d="m23.13,5.27V1.07h1.27c1.16,0,1.5.69,1.5,1.27s-.36,1.24-1.51,1.24h-.85v1.69h-.42Zm1.36-2.07c.58,0,1-.35,1-.87,0-.42-.27-.87-1.09-.87h-.85v1.75h.94Z"/><path class="cls-5" d="m26.43,5.27V1.07h.4v4.2h-.4Z"/><path class="cls-5" d="m30.32,5.27v-.54h-.01c-.26.39-.7.62-1.21.62-.93,0-1.67-.7-1.67-1.63s.76-1.62,1.67-1.62c.52,0,.96.23,1.21.62h.01v-.54h.4v3.1h-.4Zm.02-1.55c0-.69-.54-1.28-1.25-1.28s-1.27.54-1.27,1.28.54,1.26,1.27,1.26c.69,0,1.24-.57,1.24-1.27Z"/><path class="cls-5" d="m31.83,6.36l.54-1.19-1.21-3h.42l.99,2.48,1.06-2.48h.42l-1.8,4.19h-.41Z"/><path class="cls-1" d="m23.89,40.63l-6.26-9.69-6.37,9.69H0l11.89-16.74L1.35,9.35h11.21l5.07,8.23,5.02-8.23h11.1l-10.54,14.54,12.12,16.74h-11.44Z"/><path class="cls-3" d="m68.92,40.63V12.48c0-.66.53-1.19,1.19-1.19h6.5c.66,0,1.19.53,1.19,1.19v28.15h-8.88Z"/><path class="cls-4" d="m76.61,0h-11.93c-.66,0-1.19.53-1.19,1.19v5.85c0,1.27-1.03,2.31-2.31,2.31h-5.84c-.67,0-1.21.54-1.21,1.21v6.94c0,.67.54,1.21,1.21,1.21h6.94c.67,0,1.21-.54,1.21-1.21v-5.84c0-1.27,1.03-2.31,2.31-2.31h10.82c.66,0,1.19-.53,1.19-1.19V1.19c0-.66-.53-1.19-1.19-1.19Z"/><circle class="cls-6" cx="73.1" cy="4.68" r=".74"/><circle class="cls-6" cx="70.64" cy="4.68" r=".74"/><circle class="cls-6" cx="68.18" cy="4.68" r=".74"/><path class="cls-2" d="m54.18,31.32h-5.18c-3.31,0-6.26-2.41-6.58-5.7-.37-3.77,2.6-6.97,6.3-6.97h2.34c.67,0,1.21-.54,1.21-1.21v-6.89c0-.67-.54-1.21-1.21-1.21h-2.34c-8.64,0-15.64,7-15.64,15.64h0c0,8.64,7,15.64,15.64,15.64h14.77s0-18.78,0-18.78c0-.67-.54-1.21-1.21-1.21h-6.89c-.67,0-1.21.54-1.21,1.21v9.47Z"/></g></svg>