<svg version="1.1" viewBox="0.0 0.0 377.9527559055118 377.9527559055118" fill="none" stroke="none" stroke-linecap="square" stroke-miterlimit="10" xmlns:xlink="http://www.w3.org/1999/xlink" xmlns="http://www.w3.org/2000/svg"><clipPath id="p.0"><path d="m0 0l377.95276 0l0 377.95276l-377.95276 0l0 -377.95276z" clip-rule="nonzero"/></clipPath><g clip-path="url(#p.0)"><path fill="#ffffff" d="m0 0l377.95276 0l0 377.95276l-377.95276 0z" fill-rule="evenodd"/><path fill="#000000" fill-opacity="0.0" d="m26.992128 185.99475l0 0c0 -91.122635 73.86949 -164.99213 164.99213 -164.99213l0 0c43.758636 0 85.72504 17.383049 116.66705 48.325073c30.942017 30.942024 48.325073 72.90842 48.325073 116.66705l0 0c0 91.12262 -73.86948 164.99213 -164.99213 164.99213l0 0c-91.122635 0 -164.99213 -73.86951 -164.99213 -164.99213z" fill-rule="evenodd"/><path stroke="#4a86e8" stroke-width="8.0" stroke-linejoin="round" stroke-linecap="butt" d="m26.992128 185.99475l0 0c0 -91.122635 73.86949 -164.99213 164.99213 -164.99213l0 0c43.758636 0 85.72504 17.383049 116.66705 48.325073c30.942017 30.942024 48.325073 72.90842 48.325073 116.66705l0 0c0 91.12262 -73.86948 164.99213 -164.99213 164.99213l0 0c-91.122635 0 -164.99213 -73.86951 -164.99213 -164.99213z" fill-rule="evenodd"/><path fill="#ffffff" d="m7.999779 125.71905l279.55905 0l0 70.92913l-279.55905 0z" fill-rule="evenodd"/><path fill="#000000" d="m22.968529 166.64673l0 14.796875l-6.921875 0l0 -39.8125l15.234375 0q6.671875 0 10.59375 3.46875q3.921875 3.46875 3.921875 9.1875q0 5.859375 -3.84375 9.109375q-3.84375 3.25 -10.75 3.25l-8.234375 0zm0 -5.546875l8.3125 0q3.6875 0 5.625 -1.734375q1.953125 -1.734375 1.953125 -5.015625q0 -3.234375 -1.96875 -5.15625q-1.96875 -1.9375 -5.421875 -1.984375l-8.5 0l0 13.890625zm34.402344 -9.25l0.1875 3.421875q3.28125 -3.96875 8.609375 -3.96875q9.25 0 9.40625 10.59375l0 19.546875l-6.640625 0l0 -19.171875q0 -2.8125 -1.21875 -4.15625q-1.21875 -1.359375 -3.984375 -1.359375q-4.015625 0 -5.984375 3.625l0 21.0625l-6.640625 0l0 -29.59375l6.265625 0zm32.535156 14.796875l0 14.796875l-6.921875 0l0 -39.8125l15.234375 0q6.671875 0 10.59375 3.46875q3.921875 3.46875 3.921875 9.1875q0 5.859375 -3.84375 9.109375q-3.84375 3.25 -10.75 3.25l-8.234375 0zm0 -5.546875l8.3125 0q3.6875 0 5.625 -1.734375q1.953125 -1.734375 1.953125 -5.015625q0 -3.234375 -1.96875 -5.15625q-1.96875 -1.9375 -5.421875 -1.984375l-8.5 0l0 13.890625zm56.51954 -5.09375l8.359375 -14.375l7.984375 0l-12.03125 19.734375l12.3125 20.078125l-8.0625 0l-8.5625 -14.609375l-8.59375 14.609375l-8.03125 0l12.328125 -20.078125l-12.0625 -19.734375l7.984375 0l8.375 14.375zm44.015625 16.171875l-15.421875 0l-3.21875 9.265625l-7.1875 0l15.03125 -39.8125l6.203125 0l15.078125 39.8125l-7.21875 0l-3.265625 -9.265625zm-13.46875 -5.578125l11.53125 0l-5.765625 -16.515625l-5.765625 16.515625zm35.753906 14.84375l-6.890625 0l0 -39.8125l6.890625 0l0 39.8125z" fill-rule="nonzero"/><path fill="#ffffff" d="m8.000033 191.71916l287.62204 0l0 32.0l-287.62204 0z" fill-rule="evenodd"/><path fill="#595959" d="m21.265657 214.63916l-7.484374 0l0 -13.3125l7.484374 0l0 1.59375l-5.609374 0l0 3.96875l5.265624 0l0 1.578125l-5.265624 0l0 4.5625l5.609374 0l0 1.609375zm6.5254517 -10.21875q1.859375 0 2.765625 0.828125q0.921875 0.828125 0.921875 2.609375l0 6.78125l-1.3125 0l-0.34375 -1.453125l-0.078125 0q-0.421875 0.546875 -0.875 0.90625q-0.453125 0.359375 -1.046875 0.546875q-0.59375 0.1875 -1.453125 0.1875q-0.921875 0 -1.625 -0.328125q-0.703125 -0.328125 -1.109375 -0.984375q-0.40625 -0.671875 -0.40625 -1.6875q0 -1.53125 1.171875 -2.328125q1.171875 -0.796875 3.5625 -0.859375l1.734375 -0.078125l0 -0.5625q0 -1.171875 -0.53125 -1.65625q-0.515625 -0.484375 -1.46875 -0.484375q-0.765625 0 -1.484375 0.234375q-0.703125 0.21875 -1.359375 0.515625l-0.578125 -1.328125q0.703125 -0.359375 1.609375 -0.609375q0.90625 -0.25 1.90625 -0.25zm1.875 5.34375l-1.390625 0.0625q-1.75 0.0625 -2.453125 0.578125q-0.703125 0.515625 -0.703125 1.4375q0 0.796875 0.484375 1.171875q0.484375 0.375 1.265625 0.375q1.234375 0 2.015625 -0.6875q0.78125 -0.6875 0.78125 -2.03125l0 -0.90625zm11.500597 2.0625q0 0.984375 -0.484375 1.65625q-0.484375 0.671875 -1.390625 1.015625q-0.90625 0.328125 -2.1875 0.328125q-1.0625 0 -1.828125 -0.171875q-0.75 -0.15625 -1.375 -0.453125l0 -1.625q0.65625 0.328125 1.53125 0.578125q0.875 0.234375 1.71875 0.234375q1.171875 0 1.6875 -0.375q0.53125 -0.375 0.53125 -1.0q0 -0.375 -0.21875 -0.65625q-0.203125 -0.296875 -0.734375 -0.578125q-0.515625 -0.296875 -1.484375 -0.671875q-0.953125 -0.375 -1.640625 -0.734375q-0.671875 -0.375 -1.03125 -0.90625q-0.359375 -0.53125 -0.359375 -1.375q0 -1.296875 1.046875 -1.984375q1.046875 -0.6875 2.765625 -0.6875q0.90625 0 1.703125 0.1875q0.8125 0.171875 1.546875 0.5l-0.59375 1.421875q-0.65625 -0.296875 -1.34375 -0.46875q-0.6875 -0.1875 -1.40625 -0.1875q-0.9375 0 -1.4375 0.296875q-0.5 0.296875 -0.5 0.828125q0 0.40625 0.234375 0.6875q0.234375 0.265625 0.78125 0.53125q0.546875 0.25 1.46875 0.609375q0.921875 0.34375 1.59375 0.71875q0.671875 0.375 1.03125 0.921875q0.375 0.53125 0.375 1.359375zm0.8191986 -7.21875l1.984375 0l2.125 5.78125q0.171875 0.4375 0.3125 0.875q0.140625 0.421875 0.234375 0.8125q0.109375 0.390625 0.171875 0.78125l0.0625 0q0.109375 -0.46875 0.3125 -1.125q0.203125 -0.671875 0.4375 -1.359375l2.046875 -5.765625l1.96875 0l-4.34375 11.453125q-0.359375 0.953125 -0.859375 1.640625q-0.5 0.6875 -1.203125 1.046875q-0.6875 0.375 -1.640625 0.375q-0.4375 0 -0.765625 -0.046875q-0.328125 -0.046875 -0.5625 -0.109375l0 -1.453125q0.1875 0.046875 0.46875 0.078125q0.296875 0.03125 0.609375 0.03125q0.578125 0 0.984375 -0.21875q0.421875 -0.21875 0.71875 -0.640625q0.296875 -0.40625 0.5 -0.953125l0.453125 -1.1875l-4.015625 -10.015625zm19.558304 8.734375q0.390625 0 0.78125 -0.0625q0.40625 -0.078125 0.703125 -0.1875l0 1.40625q-0.3125 0.125 -0.828125 0.21875q-0.515625 0.109375 -1.046875 0.109375q-0.828125 0 -1.5 -0.28125q-0.65625 -0.28125 -1.0625 -0.96875q-0.390625 -0.6875 -0.390625 -1.890625l0 -5.671875l-1.390625 0l0 -0.84375l1.453125 -0.671875l0.65625 -2.171875l1.125 0l0 2.28125l2.90625 0l0 1.40625l-2.90625 0l0 5.640625q0 0.84375 0.40625 1.265625q0.40625 0.421875 1.09375 0.421875zm12.279934 -3.734375q0 1.234375 -0.328125 2.203125q-0.3125 0.96875 -0.9375 1.640625q-0.609375 0.671875 -1.484375 1.03125q-0.859375 0.34375 -1.953125 0.34375q-1.015625 0 -1.875 -0.34375q-0.84375 -0.359375 -1.46875 -1.03125q-0.609375 -0.671875 -0.953125 -1.640625q-0.328125 -0.96875 -0.328125 -2.203125q0 -1.65625 0.5625 -2.8125q0.5625 -1.171875 1.609375 -1.765625q1.0625 -0.609375 2.515625 -0.609375q1.375 0 2.421875 0.609375q1.0625 0.609375 1.640625 1.765625q0.578125 1.15625 0.578125 2.8125zm-7.453125 0q0 1.15625 0.296875 1.984375q0.296875 0.828125 0.90625 1.28125q0.609375 0.4375 1.59375 0.4375q0.953125 0 1.5625 -0.4375q0.625 -0.453125 0.90625 -1.28125q0.296875 -0.828125 0.296875 -1.984375q0 -1.15625 -0.296875 -1.96875q-0.28125 -0.828125 -0.90625 -1.265625q-0.609375 -0.4375 -1.59375 -0.4375q-1.4375 0 -2.109375 0.96875q-0.65625 0.953125 -0.65625 2.703125zm23.354263 -5.0l0 10.03125l-1.453125 0l-0.265625 -1.375l-0.09375 0q-0.3125 0.515625 -0.8125 0.875q-0.484375 0.34375 -1.09375 0.515625q-0.609375 0.171875 -1.296875 0.171875q-1.15625 0 -1.96875 -0.375q-0.796875 -0.390625 -1.21875 -1.203125q-0.40625 -0.8125 -0.40625 -2.078125l0 -6.5625l1.84375 0l0 6.3125q0 1.203125 0.515625 1.8125q0.53125 0.59375 1.59375 0.59375q1.0625 0 1.671875 -0.40625q0.609375 -0.421875 0.875 -1.21875q0.28125 -0.796875 0.28125 -1.953125l0 -5.140625l1.828125 0zm9.760422 7.21875q0 0.984375 -0.484375 1.65625q-0.484375 0.671875 -1.390625 1.015625q-0.90625 0.328125 -2.1875 0.328125q-1.0625 0 -1.828125 -0.171875q-0.75 -0.15625 -1.375 -0.453125l0 -1.625q0.65625 0.328125 1.53125 0.578125q0.875 0.234375 1.71875 0.234375q1.171875 0 1.6875 -0.375q0.53125 -0.375 0.53125 -1.0q0 -0.375 -0.21875 -0.65625q-0.203125 -0.296875 -0.734375 -0.578125q-0.515625 -0.296875 -1.484375 -0.671875q-0.953125 -0.375 -1.640625 -0.734375q-0.671875 -0.375 -1.03125 -0.90625q-0.359375 -0.53125 -0.359375 -1.375q0 -1.296875 1.046875 -1.984375q1.046875 -0.6875 2.765625 -0.6875q0.90625 0 1.703125 0.1875q0.8125 0.171875 1.546875 0.5l-0.59375 1.421875q-0.65625 -0.296875 -1.34375 -0.46875q-0.6875 -0.1875 -1.40625 -0.1875q-0.9375 0 -1.4375 0.296875q-0.5 0.296875 -0.5 0.828125q0 0.40625 0.234375 0.6875q0.234375 0.265625 0.78125 0.53125q0.546875 0.25 1.46875 0.609375q0.921875 0.34375 1.59375 0.71875q0.671875 0.375 1.03125 0.921875q0.375 0.53125 0.375 1.359375zm6.3035736 -7.40625q1.3125 0 2.25 0.5625q0.9375 0.5625 1.4375 1.578125q0.5 1.015625 0.5 2.40625l0 1.03125l-6.8125 0q0.015625 1.609375 0.8125 2.484375q0.8125 0.859375 2.265625 0.859375q0.953125 0 1.703125 -0.1875q0.75 -0.1875 1.546875 -0.53125l0 1.53125q-0.765625 0.34375 -1.53125 0.5q-0.75 0.171875 -1.8125 0.171875q-1.453125 0 -2.546875 -0.578125q-1.09375 -0.59375 -1.703125 -1.734375q-0.609375 -1.140625 -0.609375 -2.828125q0 -1.65625 0.546875 -2.828125q0.5625 -1.1875 1.5625 -1.8125q1.015625 -0.625 2.390625 -0.625zm-0.015625 1.421875q-1.109375 0 -1.78125 0.734375q-0.671875 0.71875 -0.796875 2.0625l4.9375 0q-0.015625 -0.828125 -0.265625 -1.453125q-0.25 -0.640625 -0.765625 -0.984375q-0.515625 -0.359375 -1.328125 -0.359375zm19.240067 8.796875l-7.484375 0l0 -13.3125l7.484375 0l0 1.59375l-5.609375 0l0 3.96875l5.265625 0l0 1.578125l-5.265625 0l0 4.5625l5.609375 0l0 1.609375zm4.9785767 -5.140625l-3.40625 -4.890625l2.09375 0l2.46875 3.6875l2.46875 -3.6875l2.0625 0l-3.421875 4.890625l3.609375 5.140625l-2.09375 0l-2.625 -3.921875l-2.65625 3.921875l-2.0625 0l3.5625 -5.140625zm12.661072 -5.078125q1.828125 0 2.921875 1.296875q1.09375 1.296875 1.09375 3.875q0 1.71875 -0.5 2.875q-0.5 1.15625 -1.421875 1.765625q-0.921875 0.59375 -2.140625 0.59375q-0.78125 0 -1.359375 -0.203125q-0.578125 -0.21875 -1.0 -0.546875q-0.40625 -0.34375 -0.703125 -0.734375l-0.109375 0q0.03125 0.34375 0.0625 0.8125q0.046875 0.46875 0.046875 0.84375l0 4.109375l-1.828125 0l0 -14.5l1.5 0l0.25 1.4375l0.078125 0q0.296875 -0.453125 0.703125 -0.8125q0.421875 -0.375 1.0 -0.59375q0.59375 -0.21875 1.40625 -0.21875zm-0.421875 1.515625q-0.96875 0 -1.546875 0.375q-0.578125 0.375 -0.84375 1.125q-0.265625 0.75 -0.296875 1.875l0 0.296875q0 1.203125 0.25 2.03125q0.265625 0.8125 0.859375 1.25q0.59375 0.421875 1.59375 0.421875q0.859375 0 1.421875 -0.453125q0.578125 -0.46875 0.84375 -1.3125q0.28125 -0.84375 0.28125 -1.96875q0 -1.703125 -0.625 -2.671875q-0.625 -0.96875 -1.9375 -0.96875zm8.826904 8.703125l-1.828125 0l0 -14.171875l1.828125 0l0 14.171875zm6.9711914 -10.21875q1.859375 0 2.765625 0.828125q0.921875 0.828125 0.921875 2.609375l0 6.78125l-1.3125 0l-0.34375 -1.453125l-0.078125 0q-0.421875 0.546875 -0.875 0.90625q-0.453125 0.359375 -1.046875 0.546875q-0.59375 0.1875 -1.453125 0.1875q-0.921875 0 -1.625 -0.328125q-0.703125 -0.328125 -1.109375 -0.984375q-0.40625 -0.671875 -0.40625 -1.6875q0 -1.53125 1.171875 -2.328125q1.171875 -0.796875 3.5625 -0.859375l1.734375 -0.078125l0 -0.5625q0 -1.171875 -0.53125 -1.65625q-0.515625 -0.484375 -1.46875 -0.484375q-0.765625 0 -1.484375 0.234375q-0.703125 0.21875 -1.359375 0.515625l-0.578125 -1.328125q0.703125 -0.359375 1.609375 -0.609375q0.90625 -0.25 1.90625 -0.25zm1.875 5.34375l-1.390625 0.0625q-1.75 0.0625 -2.453125 0.578125q-0.703125 0.515625 -0.703125 1.4375q0 0.796875 0.484375 1.171875q0.484375 0.375 1.265625 0.375q1.234375 0 2.015625 -0.6875q0.78125 -0.6875 0.78125 -2.03125l0 -0.90625zm6.70372 -5.15625l0 10.03125l-1.828125 0l0 -10.03125l1.828125 0zm-0.90625 -3.8125q0.4375 0 0.75 0.265625q0.3125 0.25 0.3125 0.828125q0 0.578125 -0.3125 0.84375q-0.3125 0.25 -0.75 0.25q-0.4375 0 -0.75 -0.25q-0.296875 -0.265625 -0.296875 -0.84375q0 -0.578125 0.296875 -0.828125q0.3125 -0.265625 0.75 -0.265625zm9.018066 3.625q1.75 0 2.671875 0.875q0.9375 0.875 0.9375 2.796875l0 6.546875l-1.8125 0l0 -6.296875q0 -1.203125 -0.53125 -1.796875q-0.53125 -0.609375 -1.625 -0.609375q-1.546875 0 -2.171875 0.921875q-0.625 0.90625 -0.625 2.65625l0 5.125l-1.828125 0l0 -10.03125l1.4375 0l0.265625 1.40625l0.109375 0q0.3125 -0.53125 0.796875 -0.875q0.5 -0.359375 1.109375 -0.53125q0.609375 -0.1875 1.265625 -0.1875zm10.510422 0q1.859375 0 2.765625 0.828125q0.921875 0.828125 0.921875 2.609375l0 6.78125l-1.3125 0l-0.34375 -1.453125l-0.078125 0q-0.421875 0.546875 -0.875 0.90625q-0.453125 0.359375 -1.046875 0.546875q-0.59375 0.1875 -1.453125 0.1875q-0.921875 0 -1.625 -0.328125q-0.703125 -0.328125 -1.109375 -0.984375q-0.40625 -0.671875 -0.40625 -1.6875q0 -1.53125 1.171875 -2.328125q1.171875 -0.796875 3.5625 -0.859375l1.734375 -0.078125l0 -0.5625q0 -1.171875 -0.53125 -1.65625q-0.515625 -0.484375 -1.46875 -0.484375q-0.765625 0 -1.484375 0.234375q-0.703125 0.21875 -1.359375 0.515625l-0.578125 -1.328125q0.703125 -0.359375 1.609375 -0.609375q0.90625 -0.25 1.90625 -0.25zm1.875 5.34375l-1.390625 0.0625q-1.75 0.0625 -2.453125 0.578125q-0.703125 0.515625 -0.703125 1.4375q0 0.796875 0.484375 1.171875q0.484375 0.375 1.265625 0.375q1.234375 0 2.015625 -0.6875q0.78125 -0.6875 0.78125 -2.03125l0 -0.90625zm6.70372 -9.296875l0 3.484375q0 0.59375 -0.03125 1.171875q-0.03125 0.5625 -0.0625 0.875l0.09375 0q0.40625 -0.65625 1.15625 -1.109375q0.75 -0.46875 1.9375 -0.46875q1.828125 0 2.921875 1.3125q1.109375 1.3125 1.109375 3.875q0 1.703125 -0.5 2.875q-0.5 1.15625 -1.421875 1.75q-0.921875 0.59375 -2.15625 0.59375q-1.171875 0 -1.90625 -0.4375q-0.71875 -0.4375 -1.140625 -1.03125l-0.125 0l-0.34375 1.28125l-1.359375 0l0 -14.171875l1.828125 0zm2.6875 5.46875q-1.0 0 -1.59375 0.390625q-0.578125 0.390625 -0.84375 1.1875q-0.25 0.78125 -0.25 1.984375l0 0.140625q0 1.78125 0.578125 2.734375q0.59375 0.9375 2.109375 0.9375q1.265625 0 1.90625 -0.953125q0.65625 -0.96875 0.65625 -2.765625q0 -1.828125 -0.65625 -2.734375q-0.640625 -0.921875 -1.90625 -0.921875zm8.826904 8.703125l-1.828125 0l0 -14.171875l1.828125 0l0 14.171875zm7.0649414 -10.21875q1.3125 0 2.25 0.5625q0.9375 0.5625 1.4375 1.578125q0.5 1.015625 0.5 2.40625l0 1.03125l-6.8125 0q0.015625 1.609375 0.8125 2.484375q0.8125 0.859375 2.265625 0.859375q0.953125 0 1.703125 -0.1875q0.75 -0.1875 1.546875 -0.53125l0 1.53125q-0.765625 0.34375 -1.53125 0.5q-0.75 0.171875 -1.8125 0.171875q-1.453125 0 -2.546875 -0.578125q-1.09375 -0.59375 -1.703125 -1.734375q-0.609375 -1.140625 -0.609375 -2.828125q0 -1.65625 0.546875 -2.828125q0.5625 -1.1875 1.5625 -1.8125q1.015625 -0.625 2.390625 -0.625zm-0.015625 1.421875q-1.109375 0 -1.78125 0.734375q-0.671875 0.71875 -0.796875 2.0625l4.9375 0q-0.015625 -0.828125 -0.265625 -1.453125q-0.25 -0.640625 -0.765625 -0.984375q-0.515625 -0.359375 -1.328125 -0.359375zm20.068192 8.796875l-1.46875 -3.96875l-5.234375 0l-1.453125 3.96875l-1.9375 0l5.078125 -13.375l1.921875 0l5.046875 13.375l-1.953125 0zm-2.0 -5.578125l-1.390625 -3.9375q-0.078125 -0.1875 -0.203125 -0.59375q-0.125 -0.40625 -0.265625 -0.828125q-0.125 -0.4375 -0.21875 -0.71875q-0.078125 0.375 -0.203125 0.796875q-0.125 0.40625 -0.234375 0.765625q-0.109375 0.359375 -0.1875 0.578125l-1.421875 3.9375l4.125 0zm5.7575836 5.578125l0 -13.3125l1.875 0l0 13.3125l-1.875 0z" fill-rule="nonzero"/></g></svg>